<svg width="130" height="37" viewBox="0 0 130 37" fill="none" xmlns="http://www.w3.org/2000/svg">
<path d="M10.078 16.4434V23.0764H7.1867V23.5754H4.53143V20.9632H7.1867V21.4622H8.45533V16.4434H10.078Z" fill="#16AC9F"/>
<path d="M12.9691 26.7745V29.3573H10.3138V26.7745H10.8154V25.982H9.34024V29.3573H9.84179V31.9694H7.18652V29.3573H7.71758V24.3678H10.8154V16.4434H12.4381V26.7745H12.9691Z" fill="#16AC9F"/>
<path d="M19.1058 33.613V36.2251H16.4506V33.613H16.9521V28.8877H15.6835V30.7367H16.2145V33.3488H13.5593V30.7367H14.0608V16.4434H15.6835V27.2734H18.5748V33.613H19.1058Z" fill="#16AC9F"/>
<path d="M25.1245 28.0659V30.678H22.4692V28.0659H22.9708V23.6047H21.4071V24.6906H21.9087V27.3028H19.2534V24.6906H19.7844V16.4434H21.4071V21.9905H24.5934V28.0659H25.1245Z" fill="#16AC9F"/>
<path d="M19.1059 20.4643V23.0764H16.4506V20.4643H16.9522V16.4434H18.5748V20.4643H19.1059Z" fill="#16AC9F"/>
<path d="M6.65552 19.3488C6.83254 19.3488 6.89154 19.114 6.74403 19.0259C5.71142 18.3802 4.08876 17.5291 4.29528 16.2377C4.5313 14.7115 8.75023 13.8897 14.2673 13.8897C19.7844 13.8897 24.4163 14.7702 24.7409 16.2377C25.0949 17.8519 23.7378 18.4976 23.3247 18.9966C23.2362 19.0846 23.3247 19.2314 23.4427 19.202C24.3278 19.0846 26.334 18.8498 27.3371 17.1475C28.3992 15.3572 29.2843 10.5438 27.1601 6.78706C25.0064 2.94224 20.0499 1.53345 14.0608 1.53345C7.24558 1.53345 4.08876 4.23363 2.43659 6.69901C1.16796 8.57739 -0.661229 15.5333 3.26267 18.615C4.23627 19.4075 5.82943 19.4075 6.65552 19.3488Z" stroke="#16AC9F" stroke-width="1.77018" stroke-miterlimit="10"/>
<path d="M3.73485 12.3932C3.73485 12.3932 3.52833 9.3408 5.56404 7.28632" stroke="#16AC9F" stroke-width="1.18012" stroke-miterlimit="10" stroke-linecap="round"/>
<path d="M6.95059 6.46433C7.29276 6.46433 7.57015 6.18839 7.57015 5.84799C7.57015 5.50759 7.29276 5.23164 6.95059 5.23164C6.60841 5.23164 6.33102 5.50759 6.33102 5.84799C6.33102 6.18839 6.60841 6.46433 6.95059 6.46433Z" fill="#16AC9F"/>
<path d="M8.30781 5.31954C8.48704 5.31954 8.63234 5.17499 8.63234 4.99669C8.63234 4.81839 8.48704 4.67384 8.30781 4.67384C8.12857 4.67384 7.98328 4.81839 7.98328 4.99669C7.98328 5.17499 8.12857 5.31954 8.30781 5.31954Z" fill="#16AC9F"/>
<path d="M39.74 9.32628L42.0767 3.965C42.5051 2.97841 43.8551 0.343205 46.6202 0.706682V0.836495C44.5042 0.992271 43.5046 3.12121 43.1282 3.965L39.74 11.3773C39.5843 11.7019 39.0391 12.8832 38.9871 13.3245H38.8703L34.7682 4.76984C34.4696 4.26357 34.0542 4.04288 33.6778 4.04288H33.5739V3.91307H38.4938V4.04288H38.377C38.0395 4.04288 37.689 4.34145 37.8707 4.86071L39.74 9.32628ZM50.2514 3.91307H53.4837V4.05586H53.302C52.7568 4.05586 52.2635 4.40636 51.9909 4.80878L49.4465 8.83299V12.0653C49.4595 12.5067 49.823 12.8832 50.2773 12.8832H50.4461V13.013H45.7858V12.8832H45.9546C46.4089 12.8832 46.7724 12.5197 46.7854 12.0653V8.82001L44.3189 4.7958C44.0593 4.39338 43.553 4.04288 43.0208 4.04288H42.839V3.91307H47.8628V4.04288H47.6941C47.3176 4.04288 47.058 4.48425 47.2397 4.84773L49.0311 8.0671L50.8745 4.84773C51.0692 4.48425 50.7706 4.04288 50.4201 4.04288H50.2514V3.91307ZM70.2493 14.1683L70.3532 14.2592C68.2891 18.6988 62.6812 15.2588 60.1239 13.9606C59.2411 13.5193 58.1507 13 56.528 13V12.8702H56.6968C57.1382 12.8702 57.5146 12.5197 57.5146 12.0653V4.86071C57.5146 4.40636 57.1382 4.05586 56.6968 4.05586H56.528V3.92605H61.1754V4.05586H61.0715C60.5652 4.05586 60.2018 4.40636 60.1758 4.86071V12.4288C60.1888 12.8832 60.3835 13.0909 60.6821 13.1817C64.0572 14.2202 68.7694 15.4794 70.2493 14.1683ZM66.4758 3.60152L70.5909 12.1562C70.8765 12.6625 71.3049 12.8702 71.6683 12.8702H71.7852V13H66.8652V12.8832H66.9691C67.3066 12.8832 67.6831 12.5846 67.4754 12.0653L66.9691 10.8451H64.2041L63.6848 12.0653C63.4512 12.5846 63.8406 12.8832 64.1781 12.8832H64.2949V13.013H61.3871V12.8832H61.504C61.8674 12.8832 62.3088 12.6755 62.5944 12.1692L65.619 5.54872C65.7748 5.22418 66.307 4.04288 66.359 3.60152H66.4758ZM64.4897 10.196H66.6965L65.619 7.59977L64.4897 10.196ZM71.6518 3.91307H76.1693C78.1035 3.91307 79.7781 4.39338 79.7781 6.17182C79.7781 7.41803 78.9473 8.02815 78.0776 8.0671C79.3497 8.11902 80.4402 8.96281 80.4272 10.4167C80.4402 12.2081 78.7396 13 76.364 13H71.6518V12.8702H71.8076C72.2619 12.8702 72.6254 12.5197 72.6384 12.0653V4.84773C72.6254 4.40636 72.2619 4.04288 71.8206 4.04288H71.6518V3.91307ZM75.3125 12.338H75.4683C76.5198 12.338 77.3896 11.7798 77.3766 10.209C77.3896 8.96281 76.8443 8.19691 75.7409 8.20989V8.08008C76.5847 8.08008 76.9871 7.45697 76.9871 6.37952C76.9871 4.99052 76.3251 4.56214 75.4683 4.57512H75.3125V12.338ZM84.6652 6.69107L87.0927 7.80747C88.0663 8.24883 88.6894 9.06666 88.5985 10.3258C88.4687 12.1822 86.9759 13.1817 84.5224 13.1817C83.0165 13.1817 81.9002 12.8053 81.4458 12.3509C81.1472 11.7148 81.4198 10.4427 81.8482 9.88448H81.9651C81.8872 11.2475 82.9776 12.5327 84.795 12.5327C86.0412 12.5327 86.6254 11.9225 86.6124 11.2605C86.6254 10.7153 86.2359 10.2869 85.2364 9.83256L83.1204 8.85896C81.9391 8.30076 81.3809 7.28822 81.5367 6.05499C81.7184 4.54916 82.8218 3.73133 84.5613 3.73133C85.0287 3.73133 85.9893 3.79624 86.7422 3.87413H87.7547L87.4821 5.9771H87.3523C87.3523 5.02946 86.5734 4.3804 85.2883 4.3804C84.2238 4.3804 83.5747 4.83474 83.5228 5.47083C83.4709 6.09393 84.0291 6.3925 84.6652 6.69107Z" fill="#16AC9F"/>
<path d="M41.9973 36.2983H35.7515V20.3608H41.782C46.4555 20.3608 49.7076 23.6344 49.7076 28.3726C49.7076 33.0246 46.5417 36.2983 41.9973 36.2983ZM41.4374 23.5913H39.2406V33.0677H41.6527C44.4095 33.0677 46.0248 31.3232 46.0248 28.3726C46.0248 25.3574 44.3233 23.5913 41.4374 23.5913ZM66.8672 28.308C66.8672 33.1754 63.6582 36.5567 59.0277 36.5567C54.4187 36.5567 51.2528 33.1969 51.2528 28.3295C51.2528 23.4621 54.4403 20.0808 59.0492 20.0808C63.6797 20.0808 66.8672 23.4406 66.8672 28.308ZM63.1844 28.308C63.1844 25.2712 61.6337 23.4406 59.0708 23.4406C56.4863 23.4406 54.9356 25.2712 54.9356 28.308C54.9356 31.3663 56.4863 33.1969 59.0708 33.1969C61.6337 33.1969 63.1844 31.3232 63.1844 28.308ZM72.7873 36.2983H69.2982V20.3608H72.7873V26.6496H78.9469V20.3608H82.4359V36.2983H78.9469V29.8802H72.7873V36.2983ZM89.2346 36.2983H85.7456V20.3608H91.9052C95.7819 20.3608 97.9787 22.2345 97.9787 25.5297C97.9787 27.5973 97.0957 29.0618 95.3297 29.9664L98.1295 36.2983H94.3174L91.9268 30.7202H89.2346V36.2983ZM89.2346 23.4621V27.6619H91.8837C93.4129 27.6619 94.2959 26.8865 94.2959 25.5297C94.2959 24.1944 93.4559 23.4621 91.9052 23.4621H89.2346ZM104.019 36.2983H100.573V20.3608H104.019L110.739 30.5048V20.3608H114.185V36.2983H110.739L104.019 26.1758V36.2983ZM120.994 20.3608V36.2983H117.505V20.3608H120.994ZM127.808 20.3608V36.2983H124.319V20.3608H127.808Z" fill="#16AC9F"/>
</svg>
