<svg width="30" height="36" viewBox="0 0 30 36" fill="none" xmlns="http://www.w3.org/2000/svg">
<path d="M10.078 15.795V22.428H7.1867V22.927H4.53143V20.3149H7.1867V20.8138H8.45533V15.795H10.078Z" fill="#16AC9F"/>
<path d="M12.9692 26.1261V28.7089H10.3139V26.1261H10.8155V25.3337H9.3403V28.7089H9.84186V31.321H7.18658V28.7089H7.71764V23.7194H10.8155V15.795H12.4381V26.1261H12.9692Z" fill="#16AC9F"/>
<path d="M19.1058 32.9646V35.5767H16.4506V32.9646H16.9521V28.2393H15.6835V30.0883H16.2145V32.7005H13.5593V30.0883H14.0608V15.795H15.6835V26.6251H18.5748V32.9646H19.1058Z" fill="#16AC9F"/>
<path d="M25.1246 27.4175V30.0296H22.4693V27.4175H22.9709V22.9563H21.4072V24.0423H21.9088V26.6544H19.2535V24.0423H19.7845V15.795H21.4072V21.3421H24.5935V27.4175H25.1246Z" fill="#16AC9F"/>
<path d="M19.1059 19.8159V22.428H16.4506V19.8159H16.9522V15.795H18.5748V19.8159H19.1059Z" fill="#16AC9F"/>
<path d="M6.65555 18.7004C6.83257 18.7004 6.89157 18.4656 6.74406 18.3776C5.71145 17.7319 4.08879 16.8807 4.29531 15.5893C4.53133 14.0631 8.75026 13.2413 14.2673 13.2413C19.7844 13.2413 24.4164 14.1218 24.7409 15.5893C25.0949 17.2036 23.7378 17.8493 23.3247 18.3482C23.2362 18.4363 23.3248 18.583 23.4428 18.5537C24.3279 18.4363 26.3341 18.2015 27.3372 16.4992C28.3993 14.7088 29.2844 9.89547 27.1601 6.1387C25.0064 2.29388 20.0499 0.885086 14.0608 0.885086C7.24561 0.885086 4.08879 3.58527 2.43662 6.05065C1.16799 7.92903 -0.661199 14.8849 3.2627 17.9667C4.2363 18.7591 5.82946 18.7591 6.65555 18.7004Z" stroke="#16AC9F" stroke-width="1.77018" stroke-miterlimit="10"/>
<path d="M3.73482 11.7448C3.73482 11.7448 3.5283 8.69244 5.56401 6.63795" stroke="#16AC9F" stroke-width="1.18012" stroke-miterlimit="10" stroke-linecap="round"/>
<path d="M6.95056 5.81597C7.29273 5.81597 7.57012 5.54003 7.57012 5.19963C7.57012 4.85923 7.29273 4.58328 6.95056 4.58328C6.60838 4.58328 6.33099 4.85923 6.33099 5.19963C6.33099 5.54003 6.60838 5.81597 6.95056 5.81597Z" fill="#16AC9F"/>
<path d="M8.30787 4.67118C8.4871 4.67118 8.6324 4.52663 8.6324 4.34833C8.6324 4.17003 8.4871 4.02548 8.30787 4.02548C8.12864 4.02548 7.98334 4.17003 7.98334 4.34833C7.98334 4.52663 8.12864 4.67118 8.30787 4.67118Z" fill="#16AC9F"/>
</svg>
