<svg width="16" height="16" viewBox="0 0 16 16" fill="none" xmlns="http://www.w3.org/2000/svg">
<path d="M1.66663 8.00008C1.66663 5.01475 1.66663 3.52141 2.59396 2.59408C3.52129 1.66675 5.01396 1.66675 7.99996 1.66675C10.9853 1.66675 12.4786 1.66675 13.406 2.59408C14.3333 3.52141 14.3333 5.01408 14.3333 8.00008C14.3333 10.9854 14.3333 12.4787 13.406 13.4061C12.4786 14.3334 10.986 14.3334 7.99996 14.3334C5.01463 14.3334 3.52129 14.3334 2.59396 13.4061C1.66663 12.4787 1.66663 10.9861 1.66663 8.00008Z" stroke="black" stroke-width="1.02" stroke-linejoin="round"/>
<path d="M5.66663 6.66675C5.40141 6.66675 5.14706 6.56139 4.95952 6.37386C4.77198 6.18632 4.66663 5.93196 4.66663 5.66675C4.66663 5.40153 4.77198 5.14718 4.95952 4.95964C5.14706 4.7721 5.40141 4.66675 5.66663 4.66675C5.93184 4.66675 6.1862 4.7721 6.37373 4.95964C6.56127 5.14718 6.66663 5.40153 6.66663 5.66675C6.66663 5.93196 6.56127 6.18632 6.37373 6.37386C6.1862 6.56139 5.93184 6.66675 5.66663 6.66675ZM10.3333 11.3334C10.5985 11.3334 10.8529 11.2281 11.0404 11.0405C11.2279 10.853 11.3333 10.5986 11.3333 10.3334C11.3333 10.0682 11.2279 9.81384 11.0404 9.62631C10.8529 9.43877 10.5985 9.33341 10.3333 9.33341C10.0681 9.33341 9.81372 9.43877 9.62619 9.62631C9.43865 9.81384 9.33329 10.0682 9.33329 10.3334C9.33329 10.5986 9.43865 10.853 9.62619 11.0405C9.81372 11.2281 10.0681 11.3334 10.3333 11.3334Z" stroke="black" stroke-width="1.02"/>
<path d="M6.66663 5.66675H11.3333M9.33329 10.3334H4.66663" stroke="black" stroke-width="1.02" stroke-linecap="round"/>
</svg>
