<svg width="16" height="16" viewBox="0 0 16 16" fill="none" xmlns="http://www.w3.org/2000/svg">
<path d="M7.66675 2.33398H7.00008C4.48608 2.33398 3.22875 2.33398 2.44808 3.11532C1.66741 3.89665 1.66675 5.15332 1.66675 7.66732V9.00065C1.66675 11.5147 1.66675 12.772 2.44808 13.5527C3.22941 14.3333 4.48608 14.334 7.00008 14.334H8.33341C10.8474 14.334 12.1047 14.334 12.8854 13.5527C13.6661 12.7713 13.6667 11.5147 13.6667 9.00065V8.33398" stroke="white" stroke-width="1.02" stroke-linecap="round" stroke-linejoin="round"/>
<path d="M5.00012 8.33366H7.66679M5.00012 11.0003H10.3335M14.3335 4.00033C14.3335 4.61916 14.0876 5.21266 13.65 5.65024C13.2125 6.08783 12.619 6.33366 12.0001 6.33366C11.3813 6.33366 10.7878 6.08783 10.3502 5.65024C9.91262 5.21266 9.66679 4.61916 9.66679 4.00033C9.66679 3.38149 9.91262 2.78799 10.3502 2.35041C10.7878 1.91282 11.3813 1.66699 12.0001 1.66699C12.619 1.66699 13.2125 1.91282 13.65 2.35041C14.0876 2.78799 14.3335 3.38149 14.3335 4.00033Z" stroke="white" stroke-width="1.02" stroke-linecap="round" stroke-linejoin="round"/>
</svg>
