<svg width="16" height="16" viewBox="0 0 16 16" fill="none" xmlns="http://www.w3.org/2000/svg">
<g clip-path="url(#clip0_76_6)">
<path fill-rule="evenodd" clip-rule="evenodd" d="M8.47026 5.52876C8.34524 5.40378 8.1757 5.33357 7.99893 5.33357C7.82215 5.33357 7.65261 5.40378 7.52759 5.52876L3.75626 9.3001C3.69259 9.36159 3.6418 9.43516 3.60686 9.51649C3.57192 9.59783 3.55353 9.68531 3.55276 9.77383C3.55199 9.86235 3.56886 9.95014 3.60238 10.0321C3.6359 10.114 3.6854 10.1884 3.748 10.251C3.81059 10.3136 3.88503 10.3631 3.96696 10.3966C4.04889 10.4302 4.13667 10.447 4.22519 10.4463C4.31371 10.4455 4.40119 10.4271 4.48253 10.3922C4.56387 10.3572 4.63743 10.3064 4.69893 10.2428L7.99893 6.94276L11.2989 10.2428C11.4247 10.3642 11.5931 10.4314 11.7679 10.4299C11.9427 10.4284 12.1099 10.3582 12.2335 10.2346C12.3571 10.111 12.4272 9.94383 12.4287 9.76903C12.4302 9.59423 12.363 9.42583 12.2416 9.3001L8.47026 5.52876Z" fill="#818181"/>
</g>
<defs>
<clipPath id="clip0_76_6">
<rect width="16" height="16" fill="white"/>
</clipPath>
</defs>
</svg>
