<svg width="16" height="16" viewBox="0 0 16 16" fill="none" xmlns="http://www.w3.org/2000/svg">
<g clip-path="url(#clip0_717_3677)">
<circle cx="8" cy="8" r="6.20703" stroke="black" stroke-width="1.02"/>
<path d="M3.80713 12.7874C3.80713 12.2588 3.91558 11.7353 4.12629 11.2469C4.337 10.7585 4.64585 10.3147 5.03519 9.9409C5.42454 9.56709 5.88676 9.27057 6.39546 9.06827C6.90416 8.86596 7.44939 8.76184 8 8.76184C8.55062 8.76184 9.09584 8.86597 9.60454 9.06827C10.1132 9.27057 10.5755 9.56709 10.9648 9.9409C11.3542 10.3147 11.663 10.7585 11.8737 11.2469C12.0844 11.7353 12.1929 12.2588 12.1929 12.7874" stroke="black" stroke-width="1.02"/>
<circle cx="7.99994" cy="5.54584" r="1.59125" stroke="black" stroke-width="1.02"/>
</g>
<defs>
<clipPath id="clip0_717_3677">
<rect width="16" height="16" fill="white"/>
</clipPath>
</defs>
</svg>
