<svg width="16" height="16" viewBox="0 0 16 16" fill="none" xmlns="http://www.w3.org/2000/svg">
<g clip-path="url(#clip0_737_4146)">
<circle cx="8" cy="8" r="6.20703" stroke="white" stroke-width="1.02"/>
<path d="M3.80713 12.7869C3.80713 12.2583 3.91558 11.7348 4.12629 11.2464C4.337 10.758 4.64585 10.3142 5.03519 9.94042C5.42454 9.56661 5.88676 9.27008 6.39546 9.06778C6.90416 8.86548 7.44939 8.76135 8 8.76135C8.55062 8.76135 9.09584 8.86548 9.60454 9.06778C10.1132 9.27009 10.5755 9.56661 10.9648 9.94042C11.3542 10.3142 11.663 10.758 11.8737 11.2464C12.0844 11.7348 12.1929 12.2583 12.1929 12.7869" stroke="white" stroke-width="1.02"/>
<circle cx="7.99994" cy="5.54535" r="1.59125" stroke="white" stroke-width="1.02"/>
</g>
<defs>
<clipPath id="clip0_737_4146">
<rect width="16" height="16" fill="white"/>
</clipPath>
</defs>
</svg>
