<svg width="92" height="89" viewBox="0 0 92 89" fill="none" xmlns="http://www.w3.org/2000/svg">
<rect y="9" width="80" height="80" rx="20" fill="url(#paint0_linear_483_252)"/>
<path d="M32.1218 54.7562H34.1783H32.1218Z" stroke="white" stroke-width="0.373909"/>
<path d="M33.9918 46.5365V54.5697H30.3278V55.2015H27.3356V52.265H30.3278V52.8978H32.3092V46.5365H33.9918Z" fill="white" stroke="white" stroke-width="0.373909"/>
<path d="M36.9828 46.5365V59.6302H37.6556V62.5297H34.6644V59.6302H35.3002V58.2523H33.057V62.9037H33.6927V65.8402H30.7006V62.9037H31.3744V56.5804H35.3002V46.5365H36.9828Z" fill="white" stroke="white" stroke-width="0.373909"/>
<path d="M37.1694 56.3929V58.4388V56.3929Z" stroke="white" stroke-width="0.373909"/>
<path d="M41.0955 46.5365V60.2621H44.7605V68.2972H45.4333V71.2338H42.4421V68.2972H43.0779V61.934H41.0955V64.6517H41.7693V67.5883H38.7771V64.6517H39.4128V46.5365H41.0955Z" fill="white" stroke="white" stroke-width="0.373909"/>
<path d="M48.35 46.5365V53.5668H52.3881V61.267H53.0609V64.2035H50.0697V61.267H50.7054V55.2386H48.35V56.9896H48.9857V59.9261H45.9935V56.9896H46.6674V46.5365H48.35Z" fill="white" stroke="white" stroke-width="0.373909"/>
<path d="M44.7598 46.5365V51.6332H45.4336V54.5697H42.4414V51.6332H43.0771V46.5365H44.7598Z" fill="white" stroke="white" stroke-width="0.373909"/>
<path d="M29.841 50.0322C30.0654 50.0322 30.1401 49.7346 29.9532 49.623C28.6445 48.8047 26.588 47.726 26.8497 46.0893C27.1489 44.1551 32.4958 43.1136 39.4879 43.1136C46.48 43.1136 52.3503 44.2295 52.7616 46.0893C53.2103 48.1351 51.4904 48.9535 50.9669 49.5858C50.8547 49.6974 50.9669 49.8834 51.1164 49.8462C52.2382 49.6974 54.7808 49.3998 56.052 47.2424C57.3981 44.9734 58.5199 38.8732 55.8277 34.112C53.0982 29.2392 46.8165 27.4538 39.2261 27.4538C30.5888 27.4538 26.588 30.8759 24.4941 34.0004C22.8863 36.381 20.5681 45.1966 25.5411 49.1023C26.775 50.1066 28.7941 50.1066 29.841 50.0322Z" stroke="white" stroke-width="2.24346" stroke-miterlimit="10"/>
<path d="M26.1395 41.2169C26.1395 41.2169 25.8778 37.3485 28.4578 34.7447" stroke="white" stroke-width="1.49564" stroke-miterlimit="10" stroke-linecap="round"/>
<path d="M30.215 32.3272C30.5463 32.3272 30.8136 32.5947 30.8136 32.9219C30.8135 33.2491 30.5463 33.5157 30.215 33.5157C29.8837 33.5157 29.6164 33.2491 29.6163 32.9219C29.6163 32.5947 29.8837 32.3272 30.215 32.3272Z" fill="white" stroke="white" stroke-width="0.373909"/>
<path d="M31.9349 31.6203C32.0598 31.6203 32.1595 31.7211 32.1595 31.8429C32.1595 31.9647 32.0598 32.0656 31.9349 32.0656C31.8102 32.0655 31.7103 31.9647 31.7103 31.8429C31.7103 31.7212 31.8102 31.6204 31.9349 31.6203Z" fill="white" stroke="white" stroke-width="0.373909"/>
<rect x="60" width="32" height="32" rx="16" fill="#DEF6F7"/>
<path d="M81.3334 10V12.6667" stroke="#129AA1" stroke-width="1.33333" stroke-linecap="round" stroke-linejoin="round"/>
<path d="M82.6667 11.3333H80" stroke="#129AA1" stroke-width="1.33333" stroke-linecap="round" stroke-linejoin="round"/>
<path d="M74.8087 11.8244C74.6667 11.8531 74.5348 11.9227 74.4308 12.0266C74.2921 12.1652 74.2136 12.3539 74.213 12.55V14.6311C74.213 14.7326 74.1933 14.8332 74.1544 14.927C74.1155 15.0208 74.0584 15.1062 73.9865 15.1779C73.9146 15.2496 73.8293 15.3062 73.7355 15.3449C73.6884 15.3643 73.6397 15.3791 73.59 15.3889L73.4396 15.4035H71.3585C71.1623 15.404 70.9738 15.4825 70.8351 15.6213C70.6966 15.76 70.6188 15.9478 70.6183 16.1438V17.3537L70.6329 17.4992C70.6617 17.6412 70.7321 17.7733 70.8361 17.8772C70.9748 18.0155 71.1626 18.0935 71.3585 18.094H73.4406C73.542 18.0938 73.6427 18.1138 73.7365 18.1526C73.8302 18.1913 73.9156 18.2479 73.9874 18.3195C74.0592 18.3913 74.1165 18.4768 74.1554 18.5705C74.1943 18.6645 74.2141 18.7657 74.214 18.8674V20.9485C74.2146 21.1445 74.2931 21.3323 74.4318 21.4709C74.5704 21.6096 74.7581 21.6881 74.9542 21.6887H76.1642C76.3601 21.688 76.5481 21.6095 76.6866 21.4709C76.8249 21.3325 76.9027 21.1451 76.9034 20.9494V18.8674C76.9033 18.7657 76.9232 18.6645 76.962 18.5705C77.0009 18.4767 77.0582 18.3913 77.13 18.3195C77.2019 18.2477 77.288 18.1913 77.382 18.1526C77.4758 18.1139 77.5763 18.0938 77.6779 18.094H79.7589C79.9548 18.0935 80.1427 18.0156 80.2814 17.8772C80.42 17.7387 80.4984 17.5506 80.4991 17.3547V16.1438C80.4986 15.9476 80.4201 15.76 80.2814 15.6213C80.1425 15.4825 79.9543 15.4038 79.7579 15.4035H77.6759V15.4026C77.5745 15.4027 77.4737 15.3836 77.38 15.3449C77.2863 15.3062 77.2008 15.2496 77.129 15.1779C77.0572 15.1062 77 15.0208 76.9611 14.927C76.9222 14.8332 76.9025 14.7326 76.9025 14.6311V12.55L76.8878 12.4045C76.8591 12.2628 76.7893 12.1314 76.6857 12.0276C76.5818 11.9236 76.4497 11.8532 76.3077 11.8244L76.1632 11.8098H74.9532L74.8087 11.8244ZM77.8439 20.9494C77.8431 21.3948 77.6665 21.8219 77.3517 22.1369C77.0368 22.4519 76.6096 22.6291 76.1642 22.6301H74.9532C74.5076 22.6294 74.0799 22.452 73.7648 22.1369C73.4498 21.8219 73.2724 21.3949 73.2716 20.9494V19.0178L71.3595 19.0354H71.3585C70.9129 19.0348 70.4853 18.8581 70.17 18.5432C69.8548 18.2281 69.6767 17.8004 69.6759 17.3547V16.1438L69.6847 15.9778C69.7233 15.593 69.8933 15.2312 70.1691 14.9553C70.4843 14.64 70.9127 14.4627 71.3585 14.4621H73.2892L73.2716 12.55V12.549C73.2724 12.1034 73.4497 11.6757 73.7648 11.3606C74.0799 11.0456 74.5077 10.8681 74.9532 10.8674H76.1642C76.6096 10.8683 77.0367 11.0457 77.3517 11.3606C77.6668 11.6757 77.8441 12.1034 77.8448 12.549V14.4787L79.757 14.4621H79.7589C80.2046 14.4628 80.6322 14.6401 80.9474 14.9553C81.2625 15.2705 81.44 15.698 81.4406 16.1438V17.3547C81.4398 17.8004 81.2616 18.2281 80.9464 18.5432C80.6313 18.8579 80.2043 19.0347 79.7589 19.0354H77.8273L77.8439 20.9475V20.9494Z" fill="#129AA1" stroke="#129AA1" stroke-width="0.3"/>
<defs>
<linearGradient id="paint0_linear_483_252" x1="0" y1="9" x2="80" y2="89" gradientUnits="userSpaceOnUse">
<stop stop-color="#17C5CF"/>
<stop offset="1" stop-color="#17C5CF" stop-opacity="0.8"/>
</linearGradient>
</defs>
</svg>
