<svg width="92" height="89" viewBox="0 0 92 89" fill="none" xmlns="http://www.w3.org/2000/svg">
<g clip-path="url(#clip0_816_61)">
<g filter="url(#filter0_ii_816_61)">
<rect y="8.99902" width="79.9908" height="79.9908" rx="19.9977" fill="url(#paint0_linear_816_61)"/>
<path d="M32.1182 54.75H34.1744H32.1182Z" stroke="white" stroke-width="0.373866"/>
<path d="M33.9878 46.5312V54.5635H30.3237V55.1953H27.3325V52.2598H30.3237V52.8916H32.3052V46.5312H33.9878Z" fill="white" stroke="white" stroke-width="0.373866"/>
<path d="M36.9783 46.5312V59.623H37.6511V62.5225H34.6609V59.623H35.2957V58.2451H33.0525V62.8965H33.6882V65.833H30.697V62.8965H31.3708V56.5732H35.2957V46.5312H36.9783Z" fill="white" stroke="white" stroke-width="0.373866"/>
<path d="M37.1652 56.3877V58.4333V56.3877Z" stroke="white" stroke-width="0.373866"/>
<path d="M41.0911 46.5312V60.2559H44.7551V68.2891H45.428V71.2256H42.4368V68.2891H43.0725V61.9277H41.0911V64.6445H41.7639V67.5811H38.7727V64.6445H39.4084V46.5312H41.0911Z" fill="white" stroke="white" stroke-width="0.373866"/>
<path d="M48.3439 46.5312V53.5605H52.382V61.2598H53.0548V64.1963H50.0636V61.2598H50.6993V55.2324H48.3439V56.9824H48.9796V59.9189H45.9884V56.9824H46.6622V46.5312H48.3439Z" fill="white" stroke="white" stroke-width="0.373866"/>
<path d="M44.755 46.5312V51.627H45.4279V54.5635H42.4366V51.627H43.0724V46.5312H44.755Z" fill="white" stroke="white" stroke-width="0.373866"/>
<path d="M29.8376 50.027C30.0619 50.027 30.1367 49.7295 29.9498 49.6179C28.6412 48.7996 26.585 47.7211 26.8467 46.0846C27.1458 44.1506 32.4921 43.1092 39.4834 43.1092C46.4747 43.1092 52.3444 44.225 52.7556 46.0846C53.2043 48.1302 51.4845 48.9484 50.9611 49.5807C50.8489 49.6923 50.9611 49.8782 51.1106 49.841C52.2322 49.6923 54.7745 49.3947 56.0456 47.2376C57.3916 44.9688 58.5132 38.8693 55.8213 34.1086C53.0921 29.2364 46.8111 27.4512 39.2217 27.4512C30.5853 27.4512 26.585 30.8729 24.4913 33.997C22.8837 36.3774 20.5657 45.192 25.5381 49.0972C26.7719 50.1014 28.7908 50.1014 29.8376 50.027Z" stroke="white" stroke-width="2.2432" stroke-miterlimit="10"/>
<path d="M26.1365 41.2127C26.1365 41.2127 25.8748 37.3447 28.4544 34.7412" stroke="white" stroke-width="1.49547" stroke-miterlimit="10" stroke-linecap="round"/>
<path d="M30.2115 32.3232C30.5428 32.3233 30.8102 32.5908 30.8102 32.918C30.8101 33.2451 30.5427 33.5117 30.2115 33.5117C29.8803 33.5117 29.613 33.2451 29.6129 32.918C29.6129 32.5908 29.8803 32.3232 30.2115 32.3232Z" fill="white" stroke="white" stroke-width="0.373866"/>
<path d="M31.9313 31.6172C32.0561 31.6172 32.1559 31.7181 32.1559 31.8398C32.1558 31.9616 32.0561 32.0615 31.9313 32.0615C31.8065 32.0615 31.7067 31.9616 31.7067 31.8398C31.7067 31.7181 31.8065 31.6173 31.9313 31.6172Z" fill="white" stroke="white" stroke-width="0.373866"/>
</g>
<rect x="60.4931" y="0.499943" width="30.9965" height="30.9965" rx="15.4982" fill="url(#paint1_linear_816_61)"/>
<rect x="60.4931" y="0.499943" width="30.9965" height="30.9965" rx="15.4982" stroke="#BEF4F0" stroke-width="0.999885"/>
<path d="M81.3241 9.99902V12.6654" stroke="#16AC9F" stroke-width="1.33318" stroke-linecap="round" stroke-linejoin="round"/>
<path d="M82.6572 11.332H79.9908" stroke="#16AC9F" stroke-width="1.33318" stroke-linecap="round" stroke-linejoin="round"/>
<path d="M76.1553 10.8662L76.3213 10.875C76.7057 10.9138 77.0672 11.0839 77.3428 11.3594C77.6578 11.6744 77.8352 12.1023 77.8359 12.5479V14.4775L79.748 14.46H79.749C80.1947 14.4605 80.6223 14.6381 80.9375 14.9531C81.2527 15.2683 81.43 15.6959 81.4307 16.1416V17.3525L81.4229 17.5186C81.3841 17.9033 81.2134 18.2653 80.9375 18.541C80.6223 18.856 80.1946 19.0326 79.749 19.0332H77.8184L77.835 20.9453V20.9473C77.8342 21.3926 77.6576 21.8198 77.3428 22.1348C77.0279 22.4498 76.6007 22.627 76.1553 22.6279H74.9443C74.4988 22.6272 74.0719 22.4497 73.7568 22.1348C73.4418 21.8198 73.2645 21.3928 73.2637 20.9473V19.0156L71.3516 19.0332H71.3496C70.9042 19.0325 70.4772 18.8558 70.1621 18.541C69.8469 18.2259 69.6687 17.7982 69.668 17.3525V16.1416C69.6686 15.6959 69.846 15.2683 70.1611 14.9531C70.4763 14.638 70.9039 14.4606 71.3496 14.46H73.2812L73.2637 12.5488V12.5479C73.2644 12.1023 73.4418 11.6744 73.7568 11.3594C74.0719 11.0445 74.4989 10.867 74.9443 10.8662H76.1553ZM74.7998 11.8232C74.658 11.852 74.5267 11.9217 74.4229 12.0254C74.2843 12.1639 74.2057 12.3519 74.2051 12.5479V14.6299C74.205 14.7313 74.1854 14.8321 74.1465 14.9258C74.1076 15.0196 74.0504 15.105 73.9785 15.1768C73.9067 15.2484 73.8213 15.305 73.7275 15.3438C73.6338 15.3824 73.533 15.4015 73.4316 15.4014V15.4023H71.3506C71.1543 15.4028 70.9659 15.4804 70.8271 15.6191C70.6884 15.7579 70.6108 15.9463 70.6104 16.1426V17.3516L70.625 17.4971C70.6538 17.6391 70.7232 17.7711 70.8271 17.875C70.9659 18.0136 71.1544 18.0914 71.3506 18.0918H73.4316C73.5332 18.0916 73.6337 18.1117 73.7275 18.1504C73.8215 18.1892 73.9076 18.2456 73.9795 18.3174C74.0514 18.3892 74.1086 18.4754 74.1475 18.5693C74.1862 18.6631 74.2062 18.7638 74.2061 18.8652V20.9463C74.2066 21.1423 74.2843 21.3301 74.4229 21.4688C74.5614 21.6073 74.7494 21.6859 74.9453 21.6865H76.1553L76.2998 21.6719C76.4419 21.6432 76.5737 21.5728 76.6777 21.4688C76.8163 21.3301 76.894 21.1423 76.8945 20.9463V18.8652C76.8944 18.7637 76.9153 18.6632 76.9541 18.5693C76.993 18.4754 77.0492 18.3892 77.1211 18.3174C77.193 18.2456 77.2791 18.1892 77.373 18.1504C77.4669 18.1117 77.5674 18.0916 77.6689 18.0918H79.749C79.9451 18.0914 80.1337 18.0136 80.2725 17.875C80.4111 17.7365 80.4895 17.5485 80.4902 17.3525V16.1426C80.4898 15.9463 80.4113 15.7579 80.2725 15.6191C80.1684 15.5152 80.0366 15.4456 79.8945 15.417L79.749 15.4023H77.667V15.4014C77.5658 15.4015 77.4656 15.3823 77.3721 15.3438C77.2782 15.305 77.192 15.2485 77.1201 15.1768C77.0482 15.105 76.9911 15.0196 76.9521 14.9258C76.9133 14.8321 76.8936 14.7313 76.8936 14.6299V12.5479L76.8789 12.4033C76.8502 12.2614 76.7806 12.1293 76.6768 12.0254C76.5728 11.9214 76.4408 11.852 76.2988 11.8232L76.1543 11.8086H74.9453L74.7998 11.8232Z" fill="#16AC9F" stroke="#16AC9F" stroke-width="0.299966"/>
</g>
<defs>
<filter id="filter0_ii_816_61" x="0" y="7.99914" width="82.9905" height="84.9906" filterUnits="userSpaceOnUse" color-interpolation-filters="sRGB">
<feFlood flood-opacity="0" result="BackgroundImageFix"/>
<feBlend mode="normal" in="SourceGraphic" in2="BackgroundImageFix" result="shape"/>
<feColorMatrix in="SourceAlpha" type="matrix" values="0 0 0 0 0 0 0 0 0 0 0 0 0 0 0 0 0 0 127 0" result="hardAlpha"/>
<feOffset dy="3.99954"/>
<feGaussianBlur stdDeviation="1.99977"/>
<feComposite in2="hardAlpha" operator="arithmetic" k2="-1" k3="1"/>
<feColorMatrix type="matrix" values="0 0 0 0 0.654437 0 0 0 0 0.897194 0 0 0 0 0.876155 0 0 0 0.3 0"/>
<feBlend mode="normal" in2="shape" result="effect1_innerShadow_816_61"/>
<feColorMatrix in="SourceAlpha" type="matrix" values="0 0 0 0 0 0 0 0 0 0 0 0 0 0 0 0 0 0 127 0" result="hardAlpha"/>
<feOffset dx="2.99966" dy="-0.999885"/>
<feGaussianBlur stdDeviation="1.99977"/>
<feComposite in2="hardAlpha" operator="arithmetic" k2="-1" k3="1"/>
<feColorMatrix type="matrix" values="0 0 0 0 0.151207 0 0 0 0 0.878256 0 0 0 0 0.815245 0 0 0 1 0"/>
<feBlend mode="normal" in2="effect1_innerShadow_816_61" result="effect2_innerShadow_816_61"/>
</filter>
<linearGradient id="paint0_linear_816_61" x1="0" y1="8.99902" x2="79.9908" y2="88.9899" gradientUnits="userSpaceOnUse">
<stop stop-color="#179A8E"/>
<stop offset="1" stop-color="#5BEDE1" stop-opacity="0.8"/>
</linearGradient>
<linearGradient id="paint1_linear_816_61" x1="75.9913" y1="0" x2="75.9913" y2="31.9963" gradientUnits="userSpaceOnUse">
<stop stop-color="#D7F2F0"/>
<stop offset="1" stop-color="#C5EFEB"/>
</linearGradient>
<clipPath id="clip0_816_61">
<rect width="92" height="89" fill="white"/>
</clipPath>
</defs>
</svg>
