<svg width="16" height="16" viewBox="0 0 16 16" fill="none" xmlns="http://www.w3.org/2000/svg">
<g clip-path="url(#clip0_76_2)">
<path fill-rule="evenodd" clip-rule="evenodd" d="M8.47026 10.4712C8.34524 10.5962 8.1757 10.6664 7.99893 10.6664C7.82215 10.6664 7.65261 10.5962 7.52759 10.4712L3.75626 6.6999C3.69259 6.63841 3.6418 6.56484 3.60686 6.48351C3.57192 6.40217 3.55353 6.31469 3.55276 6.22617C3.55199 6.13765 3.56886 6.04986 3.60238 5.96793C3.6359 5.886 3.6854 5.81157 3.748 5.74897C3.81059 5.68638 3.88503 5.63688 3.96696 5.60336C4.04889 5.56983 4.13667 5.55297 4.22519 5.55374C4.31371 5.55451 4.40119 5.5729 4.48253 5.60784C4.56387 5.64277 4.63743 5.69356 4.69893 5.75724L7.99893 9.05724L11.2989 5.75724C11.4247 5.6358 11.5931 5.5686 11.7679 5.57012C11.9427 5.57164 12.1099 5.64175 12.2335 5.76536C12.3571 5.88896 12.4272 6.05617 12.4287 6.23097C12.4302 6.40577 12.363 6.57417 12.2416 6.6999L8.47026 10.4712Z" fill="#16ac9f"/>
</g>
<defs>
<clipPath id="clip0_76_2">
<rect width="16" height="16" fill="white"/>
</clipPath>
</defs>
</svg>
