<svg width="16" height="16" viewBox="0 0 16 16" fill="none" xmlns="http://www.w3.org/2000/svg">
<path d="M1.66663 8.00033C1.66663 5.01499 1.66663 3.52166 2.59396 2.59433C3.52129 1.66699 5.01396 1.66699 7.99996 1.66699C10.9853 1.66699 12.4786 1.66699 13.406 2.59433C14.3333 3.52166 14.3333 5.01433 14.3333 8.00033C14.3333 10.9857 14.3333 12.479 13.406 13.4063C12.4786 14.3337 10.986 14.3337 7.99996 14.3337C5.01463 14.3337 3.52129 14.3337 2.59396 13.4063C1.66663 12.479 1.66663 10.9863 1.66663 8.00033Z" stroke="white" stroke-width="1.02" stroke-linejoin="round"/>
<path d="M5.66663 6.66699C5.40141 6.66699 5.14706 6.56164 4.95952 6.3741C4.77198 6.18656 4.66663 5.93221 4.66663 5.66699C4.66663 5.40178 4.77198 5.14742 4.95952 4.95989C5.14706 4.77235 5.40141 4.66699 5.66663 4.66699C5.93184 4.66699 6.1862 4.77235 6.37373 4.95989C6.56127 5.14742 6.66663 5.40178 6.66663 5.66699C6.66663 5.93221 6.56127 6.18656 6.37373 6.3741C6.1862 6.56164 5.93184 6.66699 5.66663 6.66699ZM10.3333 11.3337C10.5985 11.3337 10.8529 11.2283 11.0404 11.0408C11.2279 10.8532 11.3333 10.5989 11.3333 10.3337C11.3333 10.0684 11.2279 9.81409 11.0404 9.62655C10.8529 9.43902 10.5985 9.33366 10.3333 9.33366C10.0681 9.33366 9.81372 9.43902 9.62619 9.62655C9.43865 9.81409 9.33329 10.0684 9.33329 10.3337C9.33329 10.5989 9.43865 10.8532 9.62619 11.0408C9.81372 11.2283 10.0681 11.3337 10.3333 11.3337Z" stroke="white" stroke-width="1.02"/>
<path d="M6.66663 5.66699H11.3333M9.33329 10.3337H4.66663" stroke="white" stroke-width="1.02" stroke-linecap="round"/>
</svg>
