<svg width="16" height="16" viewBox="0 0 16 16" fill="none" xmlns="http://www.w3.org/2000/svg">
<g clip-path="url(#clip0_764_9)">
<path d="M7.33342 2.66734H8.67808C9.94608 2.66734 10.5801 2.66734 10.9734 3.05801C11.1934 3.27534 11.2907 3.56734 11.3334 4.00068M7.33342 13.334H8.67808C9.94608 13.334 10.5801 13.334 10.9734 12.9433C11.1934 12.726 11.2907 12.434 11.3334 12.0007M14.0001 8.00068H9.33342M13.0001 6.33401C13.0001 6.33401 14.6667 7.56068 14.6667 8.00068C14.6667 8.44068 13.0001 9.66734 13.0001 9.66734M2.92875 2.66734C2.66675 3.07868 2.66675 3.60934 2.66675 4.67001V11.3327C2.66675 12.3933 2.66675 12.924 2.92875 13.334C2.97541 13.4073 3.02764 13.4767 3.08541 13.542C3.40741 13.906 3.91808 14.052 4.93875 14.3433C5.96075 14.6353 6.47208 14.7813 6.84275 14.5627C6.90692 14.5246 6.96663 14.4794 7.02075 14.428C7.33342 14.1313 7.33342 13.6007 7.33342 12.536V3.46534C7.33342 2.40134 7.33342 1.87001 7.02075 1.57401C6.96663 1.52262 6.90692 1.47745 6.84275 1.43934C6.47275 1.22068 5.96075 1.36601 4.93808 1.65868C3.91808 1.95001 3.40741 2.09601 3.08475 2.46001C3.02741 2.52517 2.97525 2.59405 2.92875 2.66734Z" stroke="#fff" stroke-width="1.2" stroke-linecap="round" stroke-linejoin="round"/>
</g>
<defs>
<clipPath id="clip0_764_9">
<rect width="16" height="16" fill="white"/>
</clipPath>
</defs>
</svg>
