<svg width="20" height="20" viewBox="0 0 20 20" fill="none" xmlns="http://www.w3.org/2000/svg">
<path d="M10 6.25V16.75M10 6.25C10 5.45435 9.68393 4.69129 9.12132 4.12868C8.55871 3.56607 7.79565 3.25 7 3.25H3.25C3.05109 3.25 2.86032 3.32902 2.71967 3.46967C2.57902 3.61032 2.5 3.80109 2.5 4V13.75C2.5 13.9489 2.57902 14.1397 2.71967 14.2803C2.86032 14.421 3.05109 14.5 3.25 14.5H7.75C8.34674 14.5 8.91903 14.7371 9.34099 15.159C9.76295 15.581 10 16.1533 10 16.75M10 6.25C10 5.45435 10.3161 4.69129 10.8787 4.12868C11.4413 3.56607 12.2043 3.25 13 3.25H16.75C16.9489 3.25 17.1397 3.32902 17.2803 3.46967C17.421 3.61032 17.5 3.80109 17.5 4V13.75C17.5 13.9489 17.421 14.1397 17.2803 14.2803C17.1397 14.421 16.9489 14.5 16.75 14.5H12.25C11.6533 14.5 11.081 14.7371 10.659 15.159C10.2371 15.581 10 16.1533 10 16.75" stroke="#16AC9F" stroke-width="1.5" stroke-linecap="round" stroke-linejoin="round"/>
</svg>
