<svg width="16" height="16" viewBox="0 0 16 16" fill="none" xmlns="http://www.w3.org/2000/svg">
<path d="M7.66675 2.3335H7.00008C4.48608 2.3335 3.22875 2.3335 2.44808 3.11483C1.66741 3.89616 1.66675 5.15283 1.66675 7.66683V9.00016C1.66675 11.5142 1.66675 12.7715 2.44808 13.5522C3.22941 14.3328 4.48608 14.3335 7.00008 14.3335H8.33341C10.8474 14.3335 12.1047 14.3335 12.8854 13.5522C13.6661 12.7708 13.6667 11.5142 13.6667 9.00016V8.3335" stroke="black" stroke-width="1.02" stroke-linecap="round" stroke-linejoin="round"/>
<path d="M5.00012 8.33341H7.66679M5.00012 11.0001H10.3335M14.3335 4.00008C14.3335 4.61892 14.0876 5.21241 13.65 5.65C13.2125 6.08758 12.619 6.33341 12.0001 6.33341C11.3813 6.33341 10.7878 6.08758 10.3502 5.65C9.91262 5.21241 9.66679 4.61892 9.66679 4.00008C9.66679 3.38124 9.91262 2.78775 10.3502 2.35017C10.7878 1.91258 11.3813 1.66675 12.0001 1.66675C12.619 1.66675 13.2125 1.91258 13.65 2.35017C14.0876 2.78775 14.3335 3.38124 14.3335 4.00008Z" stroke="black" stroke-width="1.02" stroke-linecap="round" stroke-linejoin="round"/>
</svg>
