<svg width="16" height="16" viewBox="0 0 16 16" fill="none" xmlns="http://www.w3.org/2000/svg">
<path d="M7.95959 2.08887C8.13073 2.08235 8.30089 2.11733 8.45569 2.19043L8.55237 2.24219L12.7291 4.65332C12.88 4.74041 13.0077 4.86311 13.1002 5.01074C13.1696 5.1216 13.2178 5.24444 13.2428 5.37207L13.2604 5.50098L13.2623 5.57715V10.4219C13.2623 10.5961 13.2199 10.768 13.1383 10.9219C13.0566 11.0758 12.9379 11.207 12.7936 11.3047L12.7145 11.3535L8.53381 13.7686H8.53284C8.38269 13.8552 8.21389 13.9045 8.04065 13.9111C7.86912 13.9177 7.69867 13.882 7.54358 13.8086L7.46643 13.7676L3.27014 11.3477C3.1192 11.2605 2.99252 11.137 2.90002 10.9893C2.83068 10.8785 2.78248 10.7564 2.75745 10.6289L2.73987 10.5L2.73694 10.4033V5.57812C2.73702 5.40383 2.78018 5.23205 2.86194 5.07812C2.94291 4.92575 3.05936 4.79459 3.20178 4.69727L3.27112 4.6543L7.46643 2.23145C7.61668 2.14467 7.78621 2.09548 7.95959 2.08887Z" stroke="black" stroke-width="1.2"/>
<circle cx="7.99995" cy="8.0002" r="2.2" stroke="black" stroke-width="1.2"/>
</svg>
