<svg width="20" height="20" viewBox="0 0 20 20" fill="none" xmlns="http://www.w3.org/2000/svg">
<path d="M7.37378 7.37476L12.6238 12.6248M8.87378 16.3748L16.3738 8.87476C16.7242 8.53131 17.0031 8.1218 17.1943 7.6699C17.3855 7.218 17.4853 6.73267 17.4878 6.24199C17.4902 5.75131 17.3954 5.26501 17.2088 4.8112C17.0221 4.35739 16.7474 3.94508 16.4004 3.59811C16.0535 3.25114 15.6412 2.9764 15.1873 2.78976C14.7335 2.60313 14.2472 2.50831 13.7565 2.51079C13.2659 2.51327 12.7805 2.61299 12.3286 2.8042C11.8767 2.99541 11.4672 3.2743 11.1238 3.62476L3.62378 11.1248C3.27333 11.4682 2.99443 11.8777 2.80322 12.3296C2.61202 12.7815 2.51229 13.2668 2.50981 13.7575C2.50733 14.2482 2.60215 14.7345 2.78879 15.1883C2.97542 15.6421 3.25016 16.0544 3.59713 16.4014C3.9441 16.7484 4.35641 17.0231 4.81022 17.2098C5.26403 17.3964 5.75033 17.4912 6.24102 17.4887C6.7317 17.4863 7.21702 17.3865 7.66892 17.1953C8.12082 17.0041 8.53034 16.7252 8.87378 16.3748Z" stroke="white" stroke-width="1.5" stroke-linecap="round" stroke-linejoin="round"/>
</svg>
