<svg width="20" height="20" viewBox="0 0 20 20" fill="none" xmlns="http://www.w3.org/2000/svg">
<path d="M10 14.4996V4.74961M10 4.74961C9.99998 4.40448 10.0794 4.06397 10.232 3.75443C10.3846 3.44488 10.6064 3.1746 10.8803 2.96449C11.1541 2.75439 11.4725 2.61008 11.811 2.54275C12.1495 2.47541 12.499 2.48685 12.8324 2.57618C13.1657 2.66551 13.4741 2.83033 13.7336 3.05789C13.993 3.28546 14.1967 3.56967 14.3288 3.88853C14.4608 4.20739 14.5178 4.55237 14.4952 4.89676C14.4726 5.24115 14.3711 5.57573 14.1985 5.87461M10 4.74961C10 4.40448 9.92063 4.06397 9.768 3.75443C9.61536 3.44488 9.39356 3.1746 9.11975 2.96449C8.84594 2.75439 8.52747 2.61008 8.18897 2.54275C7.85047 2.47541 7.50102 2.48685 7.16765 2.57618C6.83428 2.66551 6.52593 2.83033 6.26645 3.05789C6.00697 3.28546 5.80332 3.56967 5.67125 3.88853C5.53918 4.20739 5.48224 4.55237 5.50482 4.89676C5.52741 5.24115 5.62892 5.57573 5.8015 5.87461M12.25 10.7496C11.6011 10.5599 11.0311 10.1651 10.6255 9.62424C10.2199 9.08339 10.0004 8.42567 10 7.74961C9.99959 8.42567 9.78013 9.08339 9.3745 9.62424C8.96887 10.1651 8.3989 10.5599 7.75 10.7496" stroke="white" stroke-width="1.5" stroke-linecap="round" stroke-linejoin="round"/>
<path d="M14.4961 4.84375C14.9369 4.9571 15.3462 5.16929 15.6929 5.46423C16.0396 5.75918 16.3147 6.12916 16.4972 6.54614C16.6798 6.96312 16.765 7.41617 16.7466 7.87098C16.7281 8.3258 16.6064 8.77045 16.3906 9.17125" stroke="white" stroke-width="1.5" stroke-linecap="round" stroke-linejoin="round"/>
<path d="M14.5 14.4999C15.1604 14.4998 15.8023 14.2819 16.3262 13.8799C16.8501 13.4779 17.2267 12.9142 17.3976 12.2763C17.5686 11.6384 17.5242 10.962 17.2715 10.3519C17.0188 9.74176 16.5719 9.23207 16 8.90186" stroke="white" stroke-width="1.5" stroke-linecap="round" stroke-linejoin="round"/>
<path d="M15.9752 14.1123C16.0278 14.519 15.9964 14.9321 15.8831 15.3262C15.7697 15.7203 15.5768 16.0869 15.3162 16.4035C15.0555 16.7201 14.7328 16.9799 14.3678 17.1669C14.0029 17.3538 13.6035 17.464 13.1943 17.4906C12.7851 17.5171 12.3748 17.4595 11.9887 17.3213C11.6026 17.183 11.249 16.9671 10.9497 16.6869C10.6503 16.4066 10.4116 16.068 10.2483 15.6919C10.0849 15.3157 10.0004 14.9101 10 14.5001C9.99956 14.9101 9.91506 15.3157 9.75172 15.6919C9.58838 16.068 9.34967 16.4066 9.05032 16.6869C8.75097 16.9671 8.39735 17.183 8.01129 17.3213C7.62523 17.4595 7.21493 17.5171 6.80573 17.4906C6.39653 17.464 5.99712 17.3538 5.63216 17.1669C5.26721 16.9799 4.94445 16.7201 4.68384 16.4035C4.42322 16.0869 4.23027 15.7203 4.11691 15.3262C4.00355 14.9321 3.97219 14.519 4.02475 14.1123" stroke="white" stroke-width="1.5" stroke-linecap="round" stroke-linejoin="round"/>
<path d="M5.49987 14.4999C4.83949 14.4998 4.19757 14.2819 3.67367 13.8799C3.14976 13.4779 2.77315 12.9142 2.60223 12.2763C2.43131 11.6384 2.47563 10.962 2.72833 10.3519C2.98103 9.74176 3.42798 9.23207 3.99987 8.90186" stroke="white" stroke-width="1.5" stroke-linecap="round" stroke-linejoin="round"/>
<path d="M5.50098 4.84375C5.06013 4.9571 4.65085 5.16929 4.30415 5.46423C3.95745 5.75918 3.68241 6.12916 3.49986 6.54614C3.31731 6.96312 3.23205 7.41617 3.25052 7.87098C3.26899 8.3258 3.39072 8.77045 3.60648 9.17125" stroke="white" stroke-width="1.5" stroke-linecap="round" stroke-linejoin="round"/>
</svg>
