<svg width="20" height="20" viewBox="0 0 20 20" fill="none" xmlns="http://www.w3.org/2000/svg">
<path d="M16.75 13H13.75C13.3358 13 13 13.3358 13 13.75V16.75C13 17.1642 13.3358 17.5 13.75 17.5H16.75C17.1642 17.5 17.5 17.1642 17.5 16.75V13.75C17.5 13.3358 17.1642 13 16.75 13Z" stroke="white" stroke-width="1.5" stroke-linecap="round" stroke-linejoin="round"/>
<path d="M6.25 13H3.25C2.83579 13 2.5 13.3358 2.5 13.75V16.75C2.5 17.1642 2.83579 17.5 3.25 17.5H6.25C6.66421 17.5 7 17.1642 7 16.75V13.75C7 13.3358 6.66421 13 6.25 13Z" stroke="white" stroke-width="1.5" stroke-linecap="round" stroke-linejoin="round"/>
<path d="M11.5 2.5H8.5C8.08579 2.5 7.75 2.83579 7.75 3.25V6.25C7.75 6.66421 8.08579 7 8.5 7H11.5C11.9142 7 12.25 6.66421 12.25 6.25V3.25C12.25 2.83579 11.9142 2.5 11.5 2.5Z" stroke="white" stroke-width="1.5" stroke-linecap="round" stroke-linejoin="round"/>
<path d="M4.75 13V10.75C4.75 10.5511 4.82902 10.3603 4.96967 10.2197C5.11032 10.079 5.30109 10 5.5 10H14.5C14.6989 10 14.8897 10.079 15.0303 10.2197C15.171 10.3603 15.25 10.5511 15.25 10.75V13M10 10V7" stroke="white" stroke-width="1.5" stroke-linecap="round" stroke-linejoin="round"/>
</svg>
