<svg width="64" height="64" viewBox="0 0 64 64" fill="none" xmlns="http://www.w3.org/2000/svg">
<path d="M24.4983 28.9161V39.7489H19.7764V40.5638H15.4399V36.2978H19.7764V37.1126H21.8482V28.9161H24.4983Z" fill="#16AC9F"/>
<path d="M29.22 45.7885V50.0066H24.8835V45.7885H25.7026V44.4943H23.2935V50.0066H24.1126V54.2726H19.7761V50.0066H20.6434V41.858H25.7026V28.9161H28.3527V45.7885H29.22Z" fill="#16AC9F"/>
<path d="M39.2421 56.9568V61.2229H34.9057V56.9568H35.7248V49.2396H33.6529V52.2594H34.5202V56.5254H30.1837V52.2594H31.0028V28.9161H33.6529V46.6033H38.3748V56.9568H39.2421Z" fill="#16AC9F"/>
<path d="M49.0717 47.8975V52.1635H44.7352V47.8975H45.5543V40.6117H43.0006V42.3853H43.8198V46.6513H39.4833V42.3853H40.3506V28.9161H43.0006V37.9754H48.2044V47.8975H49.0717Z" fill="#16AC9F"/>
<path d="M39.2422 35.4829V39.7489H34.9058V35.4829H35.7249V28.9161H38.3749V35.4829H39.2422Z" fill="#16AC9F"/>
<path d="M18.9089 33.6611C19.198 33.6611 19.2943 33.2776 19.0534 33.1339C17.367 32.0793 14.7169 30.6893 15.0542 28.5802C15.4397 26.0877 22.3299 24.7456 31.3401 24.7456C40.3503 24.7456 47.9151 26.1836 48.4451 28.5802C49.0233 31.2165 46.8069 32.2711 46.1323 33.0859C45.9877 33.2297 46.1323 33.4694 46.325 33.4214C47.7705 33.2297 51.047 32.8463 52.6852 30.0661C54.4198 27.1422 55.8653 19.2813 52.3961 13.1459C48.8787 6.86666 40.784 4.56589 31.0028 4.56589C19.8725 4.56589 14.7169 8.97571 12.0187 13.0021C9.94681 16.0698 6.95945 27.4298 13.3678 32.4628C14.9578 33.757 17.5597 33.757 18.9089 33.6611Z" stroke="#16AC9F" stroke-width="2.89099" stroke-miterlimit="10"/>
<path d="M14.1389 22.3015C14.1389 22.3015 13.8016 17.3165 17.1262 13.9612" stroke="#16AC9F" stroke-width="1.92732" stroke-miterlimit="10" stroke-linecap="round"/>
<path d="M19.3907 12.6188C19.9495 12.6188 20.4025 12.1681 20.4025 11.6122C20.4025 11.0563 19.9495 10.6056 19.3907 10.6056C18.8319 10.6056 18.3788 11.0563 18.3788 11.6122C18.3788 12.1681 18.8319 12.6188 19.3907 12.6188Z" fill="#16AC9F"/>
<path d="M21.6073 10.7492C21.9001 10.7492 22.1374 10.5131 22.1374 10.2219C22.1374 9.93071 21.9001 9.69465 21.6073 9.69465C21.3146 9.69465 21.0773 9.93071 21.0773 10.2219C21.0773 10.5131 21.3146 10.7492 21.6073 10.7492Z" fill="#16AC9F"/>
</svg>
